<?xml version="1.0" encoding="utf-8"?>
<!-- Generator: Adobe Illustrator 17.1.0, SVG Export Plug-In . SVG Version: 6.00 Build 0)  -->
<!DOCTYPE svg PUBLIC "-//W3C//DTD SVG 1.1//EN" "http://www.w3.org/Graphics/SVG/1.1/DTD/svg11.dtd">
<svg version="1.1" id="Layer_1" xmlns="http://www.w3.org/2000/svg" xmlns:xlink="http://www.w3.org/1999/xlink" x="0px" y="0px"
	 viewBox="0 0 65 66.7" enable-background="new 0 0 65 66.7" xml:space="preserve">
<g>
	<g>
		<path id="path3214_1_" fill="#999999" d="M32.5,2C15.2,2,1.2,16,1.2,33.3s14,31.3,31.3,31.3s31.3-14,31.3-31.3S49.8,2,32.5,2z"/>
	</g>
	<path id="rect4122_1_" fill="#FFFFFF" d="M22.2,18.2c-2.7,0-4.9,2.2-4.9,4.9v20.6c0,2.7,2.2,4.9,4.9,4.9h20.6
		c2.7,0,4.9-2.2,4.9-4.9V23.1c0-2.7-2.2-4.9-4.9-4.9H22.2z M38.6,21.6h4.6c0.6,0,1.1,0.5,1.1,1.1v4.6c0,0.6-0.5,1.1-1.1,1.1h-4.6
		c-0.6,0-1.1-0.5-1.1-1.1v-4.6C37.4,22.1,37.9,21.6,38.6,21.6z M32.5,27.6c3.4,0,6.2,2.7,6.2,6.2c0,3.4-2.7,6.2-6.2,6.2
		s-6.2-2.7-6.2-6.2C26.3,30.3,29.1,27.6,32.5,27.6z M19.9,31.3h4.2c-0.2,0.8-0.3,1.6-0.3,2.4c0,4.8,3.9,8.7,8.8,8.7
		c4.8,0,8.7-3.9,8.7-8.7c0-0.9-0.1-1.7-0.4-2.4h4.2v11.8c0,1.9-1.5,3.3-3.3,3.3H23.1c-1.9,0-3.2-1.5-3.2-3.3V31.3z"/>
</g>
</svg>
