<?xml version="1.0" encoding="utf-8"?>
<!-- Generator: Adobe Illustrator 17.1.0, SVG Export Plug-In . SVG Version: 6.00 Build 0)  -->
<!DOCTYPE svg PUBLIC "-//W3C//DTD SVG 1.1//EN" "http://www.w3.org/Graphics/SVG/1.1/DTD/svg11.dtd">
<svg version="1.1" id="Layer_1" xmlns="http://www.w3.org/2000/svg" xmlns:xlink="http://www.w3.org/1999/xlink" x="0px" y="0px"
	 viewBox="0 0 65.3 66.7" enable-background="new 0 0 65.3 66.7" xml:space="preserve">
<g>
	<g>
		<path id="path6685_2_" fill="#999999" d="M32.7,2.7C15.7,2.7,2,16.4,2,33.3C2,50.3,15.7,64,32.7,64s30.6-13.7,30.6-30.6
			C63.3,16.4,49.6,2.7,32.7,2.7z"/>
	</g>
	<path id="path6689_2_" fill="#FFFFFF" d="M21.1,19.1c-2.2,0-3.6,1.4-3.6,3.4c0,1.8,1.3,3.3,3.5,3.3l0,0c2.2,0,3.6-1.4,3.6-3.3
		C24.6,20.5,23.3,19.1,21.1,19.1L21.1,19.1z M39.9,27.9c-3.4,0-4.9,1.8-5.7,3.2v0.1h-0.1c0,0,0.1,0,0.1-0.1v-2.7l-6.4,0
		c0.1,1.8,0,19.2,0,19.2l6.4,0l0-10.7c0-0.6,0-1.1,0.2-1.5c0.5-1.1,1.5-2.3,3.3-2.3c2.3,0,3.3,1.7,3.3,4.3l0,10.3l6.4,0l0-11
		C47.3,30.7,44.2,27.9,39.9,27.9z M17.9,28.4l0,19.2l6.4,0l0-19.2L17.9,28.4L17.9,28.4z"/>
</g>
</svg>
