<?xml version="1.0" encoding="utf-8"?>
<!-- Generator: Adobe Illustrator 17.1.0, SVG Export Plug-In . SVG Version: 6.00 Build 0)  -->
<!DOCTYPE svg PUBLIC "-//W3C//DTD SVG 1.1//EN" "http://www.w3.org/Graphics/SVG/1.1/DTD/svg11.dtd">
<svg version="1.1" id="Ebene_1" xmlns="http://www.w3.org/2000/svg" xmlns:xlink="http://www.w3.org/1999/xlink" x="0px" y="0px"
	 viewBox="0 0 64 64" enable-background="new 0 0 64 64" xml:space="preserve">
<g>
	<path fill="#FFFFFF" d="M3.2,63.4c0.5,0,1-0.1,1.5-0.3L19,56.6c1.2-0.5,2.9-1.7,3.8-2.6L62,14.8c0.8-0.8,1.2-1.8,1.2-2.8
		S62.8,9.9,62,9.2L54.8,2c-0.8-0.8-1.8-1.2-2.8-1.2S49.9,1.2,49.2,2L9,42.2c-1,1-2.1,2.7-2.6,3.9L0.9,59.4c-0.6,1.4-0.2,2.4,0.1,2.9
		C1.5,63,2.3,63.4,3.2,63.4z M20,51.2C20,51.2,20,51.2,20,51.2L12.8,44L46,10.8l7.2,7.2L20,51.2z M52,4.8l7.2,7.2L56,15.2L48.8,8
		L52,4.8z M10.1,47.6c0.1-0.1,0.1-0.3,0.2-0.5l6.2,6.2L5.8,58.1L10.1,47.6z"/>
</g>
</svg>
