<?xml version="1.0" encoding="utf-8"?>
<!-- Generator: Adobe Illustrator 17.1.0, SVG Export Plug-In . SVG Version: 6.00 Build 0)  -->
<!DOCTYPE svg PUBLIC "-//W3C//DTD SVG 1.1//EN" "http://www.w3.org/Graphics/SVG/1.1/DTD/svg11.dtd">
<svg version="1.1" id="Layer_1" xmlns="http://www.w3.org/2000/svg" xmlns:xlink="http://www.w3.org/1999/xlink" x="0px" y="0px"
	 viewBox="0 0 65.3 66.7" enable-background="new 0 0 65.3 66.7" xml:space="preserve">
<g>
	<path id="path6697_1_" fill="#999999" d="M32.3,3.3C15.5,3.3,2,16.8,2,33.5s13.5,30.2,30.2,30.2s30.2-13.5,30.2-30.2
		S49,3.3,32.3,3.3z"/>
	<g>
		<path id="path6699_1_" fill="#FFFFFF" d="M13.8,39.1c2.4,2.2,8.6,4.3,13.6-0.6c-0.9,0.1-1.7,0-2.3-0.6c-0.6-0.6-0.6-1.1-0.3-1.6
			c0.2-0.4,0.8-0.7,1.2-1c-0.8,0.2-1.6,0.1-2.4-0.3c-0.9-0.5-1.8-0.9-2.1-2c0.6-0.6,1.1-1.1,2.5-0.9c-1.2-0.4-2.4-0.9-3.2-1.8
			c-0.8-0.8-0.8-1.3-1-2c0.7-0.3,1.4-0.4,2.2-0.3c-1.8-0.9-2.5-2.2-2.9-3.5c-0.1-0.4-0.2-0.8-0.1-1.2c7.1,2.6,10.5,4.6,12.3,6.4
			c0.8-2.2,2.7-7.2,5.7-8.9c0,0.3-0.1,0.6-0.3,0.8c0.8-0.5,1.5-1.2,2.7-1.2c-0.1,0.6-0.6,1-1.3,1.3c0.8-0.3,1.5-0.6,2.4-0.7
			c0.8-0.1,0.8,0.5,0.3,0.8c-0.8,0.6-1.8,0.7-2.6,0.9c2.7,0.1,5,1.3,6.7,4.2c0.6,0.9,0.9,1.9,1,2.9c1.1,0.3,2.4,0.4,3.5,0.2
			c0.3-0.1,0.7-0.1,0.9-0.3c-0.5,0.7-0.9,1.2-1.7,1.5c-0.7,0.3-1.4,0.5-2.2,0.5c1.2,0.5,2.6,0.5,4.1,0.4c-1.8,1.7-3.1,1.6-4.4,1.6
			c-0.6,2.5-1.8,5-4.3,7.3c-3.3,3-7,4.4-10.7,4.7c-3.5,0.3-6.9,0.3-10.6-1.5C17.9,43.4,15.6,41.6,13.8,39.1L13.8,39.1z"/>
	</g>
</g>
</svg>
